<svg xmlns="http://www.w3.org/2000/svg" width="22.97" height="21.97" viewBox="0 0 22.97 21.97"> <defs> <style> .cls-1 { fill: #fff; fill-rule: evenodd; } </style> </defs> <path class="cls-1" d="M2732,1095.37a2.948,2.948,0,0,1-.97-1.71,2.117,2.117,0,0,1,.94-1.88,2.381,2.381,0,0,0,.8-1.04,2.122,2.122,0,0,0-.26-1.7c-0.91-1.09-1.73-2.33-2.54-3.25a2.081,2.081,0,0,0-1.96-.53,3.58,3.58,0,0,0-1.37.89c-2.04,2-2.89,4.06-2.53,6.13s1.82,4.02,4.01,6.16c0.87,0.84,1.82,1.77,2.59,2.52,2.18,2.15,4.17,3.57,6.29,3.93s4.22-.48,6.26-2.48a3.462,3.462,0,0,0,.91-1.33,1.935,1.935,0,0,0-.54-1.92c-0.94-.8-2.21-1.6-3.33-2.48a2.191,2.191,0,0,0-1.73-.26,2.368,2.368,0,0,0-1.06.78,2.209,2.209,0,0,1-1.92.92,3.061,3.061,0,0,1-1.75-.95m-5-10.31,2.29,2.93a0.666,0.666,0,0,1,.15.46,1.577,1.577,0,0,1-.36.39,3.78,3.78,0,0,0-1.45,3.17,4.265,4.265,0,0,0,1.42,2.64c0.68,0.66,1.19,1.16,1.85,1.8a4.437,4.437,0,0,0,2.7,1.4,3.95,3.95,0,0,0,3.24-1.43,1.454,1.454,0,0,1,.39-0.35,0.779,0.779,0,0,1,.47.15l3,2.24c0.21,0.21.18,0.22,0.14,0.36a2.57,2.57,0,0,1-.53.71c-1.2,1.17-3.18,2.49-4.88,2.05-1.57-.26-3.36-1.45-5.46-3.5-0.86-.85-1.81-1.78-2.58-2.53-2.09-2.04-3.31-3.8-3.58-5.34-0.45-1.67.9-3.6,2.1-4.77a2.492,2.492,0,0,1,.72-0.52,0.3,0.3,0,0,1,.37.14h0Zm5.07-3.05a0.8,0.8,0,0,0,.82.72,10.586,10.586,0,0,1,10.71,10.48,0.78,0.78,0,0,0,1.56,0,12.155,12.155,0,0,0-12.27-12.01,0.835,0.835,0,0,0-.82.81h0Zm0,3.06a0.809,0.809,0,0,0,.82.73,7.481,7.481,0,0,1,7.57,7.41,0.808,0.808,0,0,0,.79.77,0.8,0.8,0,0,0,.78-0.77,9.051,9.051,0,0,0-9.14-8.94,0.82,0.82,0,0,0-.82.8h0Z" transform="translate(-2724.03 -1083)"/> </svg>