<svg xmlns="http://www.w3.org/2000/svg" width="16" height="22" viewBox="0 0 16 22"> <defs> <style> .cls-1 { fill: #fff; fill-rule: evenodd; } </style> </defs> <path class="cls-1" d="M471.267,538a4.657,4.657,0,0,0-4.742,4.544,4.488,4.488,0,0,0,2,3.7V544.2a3.009,3.009,0,0,1-.5-1.652,3.247,3.247,0,0,1,6.488,0,3.009,3.009,0,0,1-.5,1.652v2.048a4.487,4.487,0,0,0,2-3.7A4.657,4.657,0,0,0,471.267,538Zm0,3.349a2.212,2.212,0,0,0-2.246,2.152v5.814a2.5,2.5,0,0,0-1.248-.964,2.181,2.181,0,0,0-1.622.268,2.387,2.387,0,0,0-1.053,1.218,2.767,2.767,0,0,0,.234,1.81,30.01,30.01,0,0,0,4.874,8.108,0.77,0.77,0,0,0,.562.246h6.738a0.762,0.762,0,0,0,.443-0.143,6.17,6.17,0,0,0,1.857-2.51,13.618,13.618,0,0,0,1.053-3.474,7.866,7.866,0,0,0-.078-3.349,2.656,2.656,0,0,0-2.191-2,4.064,4.064,0,0,0-.57.043,1.817,1.817,0,0,0-.561-0.635,2.054,2.054,0,0,0-1.217-.366,1.654,1.654,0,0,0-.733.209,1.82,1.82,0,0,0-.273-0.313,2.1,2.1,0,0,0-1.224-.374,2.325,2.325,0,0,0-.5.06V543.5A2.211,2.211,0,0,0,471.267,541.348Zm0,1.435a0.715,0.715,0,0,1,.748.717v5.023a0.748,0.748,0,0,0,.585.7,0.787,0.787,0,0,0,.843-0.4,0.713,0.713,0,0,1,.912-0.211,0.347,0.347,0,0,1,.156.383,0.751,0.751,0,0,0,.577.7,0.784,0.784,0,0,0,.842-0.382c0.195-.388.322-0.339,0.663-0.217a0.336,0.336,0,0,1,.164.375,0.731,0.731,0,0,0,.452.649,0.79,0.79,0,0,0,.8-0.127,1.962,1.962,0,0,1,.453-0.046,1.064,1.064,0,0,1,.881.965,6.675,6.675,0,0,1,.039,2.736,12.341,12.341,0,0,1-.952,3.108,5.483,5.483,0,0,1-1.248,1.8h-6.043c-1.4-1.811-4.616-6.682-4.6-8.34a0.934,0.934,0,0,1,.834-0.493,1.52,1.52,0,0,1,.733.8l0.991,1.9a0.782,0.782,0,0,0,.842.382,0.75,0.75,0,0,0,.577-0.7V543.5a0.715,0.715,0,0,1,.749-0.717h0Z" transform="translate(-465 -538)"/> </svg>